<svg width="512" height="512" viewBox="0 0 512 512" fill="none" xmlns="http://www.w3.org/2000/svg">
  <defs>
    <linearGradient id="igniter-icon-bg" x1="82" y1="68" x2="420" y2="452" gradientUnits="userSpaceOnUse">
      <stop stop-color="#271913"/>
      <stop offset="0.55" stop-color="#402117"/>
      <stop offset="1" stop-color="#170F0B"/>
    </linearGradient>
    <radialGradient id="igniter-icon-glow" cx="0" cy="0" r="1" gradientUnits="userSpaceOnUse" gradientTransform="translate(352 136) rotate(125.426) scale(156.243)">
      <stop stop-color="#FFB657"/>
      <stop offset="1" stop-color="#FFB657" stop-opacity="0"/>
    </radialGradient>
    <linearGradient id="igniter-icon-flame" x1="188" y1="158" x2="334" y2="402" gradientUnits="userSpaceOnUse">
      <stop stop-color="#FFD369"/>
      <stop offset="0.46" stop-color="#FF8A3D"/>
      <stop offset="1" stop-color="#E0482A"/>
    </linearGradient>
    <linearGradient id="igniter-icon-core" x1="216" y1="198" x2="300" y2="372" gradientUnits="userSpaceOnUse">
      <stop stop-color="#FFF5D8"/>
      <stop offset="1" stop-color="#FFD28A"/>
    </linearGradient>
    <linearGradient id="igniter-icon-link" x1="198" y1="302" x2="322" y2="236" gradientUnits="userSpaceOnUse">
      <stop stop-color="#FFF0D1"/>
      <stop offset="1" stop-color="#FFE3A4"/>
    </linearGradient>
    <filter id="igniter-icon-shadow" x="120" y="115" width="272" height="332" filterUnits="userSpaceOnUse" color-interpolation-filters="sRGB">
      <feFlood flood-opacity="0" result="BackgroundImageFix"/>
      <feColorMatrix in="SourceAlpha" type="matrix" values="0 0 0 0 0 0 0 0 0 0 0 0 0 0 0 0 0 0 127 0" result="hardAlpha"/>
      <feOffset dy="18"/>
      <feGaussianBlur stdDeviation="16"/>
      <feColorMatrix type="matrix" values="0 0 0 0 0.141176 0 0 0 0 0.0470588 0 0 0 0 0.0196078 0 0 0 0.28 0"/>
      <feBlend mode="normal" in2="BackgroundImageFix" result="effect1_dropShadow_1_1"/>
      <feBlend mode="normal" in="SourceGraphic" in2="effect1_dropShadow_1_1" result="shape"/>
    </filter>
  </defs>

  <rect x="28" y="28" width="456" height="456" rx="132" fill="url(#igniter-icon-bg)"/>
<!--  <rect x="40" y="40" width="432" height="432" rx="120" stroke="#FFF0D6" stroke-opacity="0.14" stroke-width="4"/>-->
<!--  <circle cx="310" cy="130" r="150" fill="url(#igniter-icon-glow)" opacity="0.8"/>-->
<!--  <path d="M132 364C153 388 187 404 228 408C269 412 312 402 348 374" stroke="#FFE8C4" stroke-opacity="0.16" stroke-width="12" stroke-linecap="round"/>-->
<!--  <path d="M148 330C177 350 215 360 262 360C307 360 345 349 374 328" stroke="#FFE8C4" stroke-opacity="0.1" stroke-width="8" stroke-linecap="round"/>-->

  <g filter="url(#igniter-icon-shadow)">
    <path d="M164 336C164 287 189 251 217 222C244 194 259 169 258 132C299 158 353 222 353 308C353 378 311 420 255 420C203 420 164 385 164 336Z" fill="url(#igniter-icon-flame)"/>
    <path d="M210 340C210 307 225 282 244 259C261 239 272 221 272 195C301 221 322 255 322 301C322 350 292 384 255 384C229 384 210 365 210 340Z" fill="url(#igniter-icon-core)"/>
  </g>

<!--  <path d="M205 320L242 286L281 301L319 238" stroke="url(#igniter-icon-link)" stroke-width="12" stroke-linecap="round" stroke-linejoin="round"/>-->
<!--  <path d="M219 342L243 286" stroke="url(#igniter-icon-link)" stroke-width="10" stroke-linecap="round"/>-->
<!--  <circle cx="205" cy="320" r="15" fill="#FFF4D7"/>-->
<!--  <circle cx="242" cy="286" r="14" fill="#FFF0CE"/>-->
<!--  <circle cx="281" cy="301" r="14" fill="#FFE2A5"/>-->
<!--  <circle cx="319" cy="238" r="16" fill="#FFF8E9"/>-->
<!--  <circle cx="219" cy="342" r="12" fill="#FFD38D"/>-->

<!--  <path d="M337 145L346 164L365 173L346 182L337 201L328 182L309 173L328 164L337 145Z" fill="#FFD978"/>-->
<!--  <circle cx="160" cy="152" r="8" fill="#FFD978" fill-opacity="0.9"/>-->
<!--  <circle cx="388" cy="214" r="6" fill="#FFD978" fill-opacity="0.65"/>-->
</svg>
